# xmcd
#
# Track frame offsets:
#	150
#	14169
#	27362
#	42511
#	59502
#	79158
#	94653
#	109326
#	122850
#	135925
#	150703
#	163819
#	180050
#	191628
#	208478
#	228392
#	241672
#	255662
#	272120
#	286422
#	301233
#	316819
#
# Disc length: 4386 seconds
#
# Revision: 0
# Processed by: cddbd v1.5.2PL0 Copyright (c) Steve Scherf et al.
# Submitted via: EZCDAudioConverter 4.0.5.1
#
DISCID=36112016
DTITLE=Multi Music Group - Hott Country # 281 CAN
DYEAR=2019
DGENRE=Country
TTITLE0=Old Dominion - One Man Band
TTITLE1=Chad Brownlee - The Way You Roll
TTITLE2=Blanco Brown - The Git Up
TTITLE3=Jess Moskaluke - Days Go By
TTITLE4=Cody Johnson - Nothin' On You
TTITLE5=Lady Antebellum - What If I Never Get Over You
TTITLE6=Justin Tyler - Raise Your Cups
TTITLE7=Trisha Yearwood - Every Girl In This Town
TTITLE8=Tim Hicks - If The Beat's Alright
TTITLE9=Brett Young - Catch
TTITLE10=Jon Langston - Now You Know
TTITLE11=Jessica Mitchell ft. Tim Hicks - Somebody Gonna Get Hurt
TTITLE12=The Cadillac Three - Crackin Cold Ones With The Boys
TTITLE13=Teddy Robb - Really Shouldn't Drink Around You
TTITLE14=Black Mountain Whiskey Rebellion - Bloody Bill
TTITLE15=Chase Rice - Lonely If You Are
TTITLE16=Meghan Patrick - Wild As Me
TTITLE17=Thompson Square - Masterpiece
TTITLE18=Jojo Mason - Better On You
TTITLE19=Jake Mathews - Just Like A Country Song
TTITLE20=Alex Runions ft. Erin Hill - Heartland
TTITLE21=Andrew Hyatt - Didn't Know Me
EXTD=
EXTT0=
EXTT1=
EXTT2=
EXTT3=
EXTT4=
EXTT5=
EXTT6=
EXTT7=
EXTT8=
EXTT9=
EXTT10=
EXTT11=
EXTT12=
EXTT13=
EXTT14=
EXTT15=
EXTT16=
EXTT17=
EXTT18=
EXTT19=
EXTT20=
EXTT21=
PLAYORDER=
